<svg width="25" height="24" viewBox="0 0 25 24" fill="none" xmlns="http://www.w3.org/2000/svg">
<path d="M12.5 2C13.0523 2 13.5 2.44772 13.5 3V4C13.5 4.55228 13.0523 5 12.5 5C11.9477 5 11.5 4.55228 11.5 4V3C11.5 2.44772 11.9477 2 12.5 2ZM19.5711 4.92893C19.9616 5.31945 19.9616 5.95261 19.5711 6.34314L18.864 7.05025C18.4735 7.44077 17.8403 7.44077 17.4498 7.05025C17.0593 6.65972 17.0593 6.02656 17.4498 5.63603L18.1569 4.92893C18.5474 4.5384 19.1806 4.5384 19.5711 4.92893ZM5.42893 4.92893C5.81945 4.5384 6.45262 4.5384 6.84314 4.92893L7.55025 5.63603C7.94077 6.02656 7.94077 6.65972 7.55025 7.05025C7.15972 7.44077 6.52656 7.44077 6.13603 7.05025L5.42893 6.34314C5.0384 5.95262 5.0384 5.31945 5.42893 4.92893ZM12.5 8C10.2909 8 8.5 9.79086 8.5 12C8.5 14.2091 10.2909 16 12.5 16C14.7091 16 16.5 14.2091 16.5 12C16.5 9.79086 14.7091 8 12.5 8ZM6.5 12C6.5 8.68629 9.18629 6 12.5 6C15.8137 6 18.5 8.68629 18.5 12C18.5 15.3137 15.8137 18 12.5 18C9.18629 18 6.5 15.3137 6.5 12ZM2.5 12C2.5 11.4477 2.94772 11 3.5 11H4.5C5.05228 11 5.5 11.4477 5.5 12C5.5 12.5523 5.05228 13 4.5 13H3.5C2.94772 13 2.5 12.5523 2.5 12ZM19.5 12C19.5 11.4477 19.9477 11 20.5 11H21.5C22.0523 11 22.5 11.4477 22.5 12C22.5 12.5523 22.0523 13 21.5 13H20.5C19.9477 13 19.5 12.5523 19.5 12ZM6.13603 16.9497C6.52656 16.5592 7.15972 16.5592 7.55025 16.9497C7.94077 17.3403 7.94077 17.9734 7.55025 18.364L6.84314 19.0711C6.45262 19.4616 5.81945 19.4616 5.42893 19.0711C5.0384 18.6805 5.0384 18.0474 5.42893 17.6568L6.13603 16.9497ZM17.4498 18.364C17.0593 17.9734 17.0593 17.3403 17.4498 16.9497C17.8403 16.5592 18.4735 16.5592 18.864 16.9497L19.5711 17.6568C19.9616 18.0474 19.9616 18.6805 19.5711 19.0711C19.1806 19.4616 18.5474 19.4616 18.1569 19.0711L17.4498 18.364ZM12.5 19C13.0523 19 13.5 19.4477 13.5 20V21C13.5 21.5523 13.0523 22 12.5 22C11.9477 22 11.5 21.5523 11.5 21V20C11.5 19.4477 11.9477 19 12.5 19Z" fill="white" fill-opacity="0.8"/>
</svg>
